<?xml version="1.0" encoding="UTF-8"?>
<svg xmlns="http://www.w3.org/2000/svg" width="639" height="69" viewBox="0 0 639 69" shape-rendering="crispEdges">
<rect width="100%" height="100%" fill="#ffffff"/>
<g fill="#000000">
<rect x="12" y="12" width="24" height="9"/>
<rect x="39" y="12" width="3" height="9"/>
<rect x="45" y="12" width="3" height="9"/>
<rect x="51" y="12" width="3" height="9"/>
<rect x="63" y="12" width="12" height="9"/>
<rect x="78" y="12" width="3" height="9"/>
<rect x="84" y="12" width="3" height="9"/>
<rect x="90" y="12" width="12" height="9"/>
<rect x="114" y="12" width="3" height="9"/>
<rect x="120" y="12" width="3" height="9"/>
<rect x="126" y="12" width="9" height="9"/>
<rect x="141" y="12" width="9" height="9"/>
<rect x="165" y="12" width="3" height="9"/>
<rect x="174" y="12" width="12" height="9"/>
<rect x="189" y="12" width="12" height="9"/>
<rect x="204" y="12" width="3" height="9"/>
<rect x="216" y="12" width="3" height="9"/>
<rect x="234" y="12" width="3" height="9"/>
<rect x="240" y="12" width="9" height="9"/>
<rect x="255" y="12" width="9" height="9"/>
<rect x="267" y="12" width="6" height="9"/>
<rect x="276" y="12" width="6" height="9"/>
<rect x="291" y="12" width="6" height="9"/>
<rect x="309" y="12" width="6" height="9"/>
<rect x="318" y="12" width="6" height="9"/>
<rect x="333" y="12" width="6" height="9"/>
<rect x="342" y="12" width="3" height="9"/>
<rect x="348" y="12" width="3" height="9"/>
<rect x="369" y="12" width="3" height="9"/>
<rect x="384" y="12" width="3" height="9"/>
<rect x="402" y="12" width="3" height="9"/>
<rect x="414" y="12" width="3" height="9"/>
<rect x="420" y="12" width="3" height="9"/>
<rect x="435" y="12" width="3" height="9"/>
<rect x="441" y="12" width="6" height="9"/>
<rect x="462" y="12" width="6" height="9"/>
<rect x="471" y="12" width="6" height="9"/>
<rect x="483" y="12" width="6" height="9"/>
<rect x="498" y="12" width="3" height="9"/>
<rect x="516" y="12" width="3" height="9"/>
<rect x="522" y="12" width="9" height="9"/>
<rect x="534" y="12" width="3" height="9"/>
<rect x="540" y="12" width="3" height="9"/>
<rect x="552" y="12" width="9" height="9"/>
<rect x="573" y="12" width="21" height="9"/>
<rect x="597" y="12" width="3" height="9"/>
<rect x="609" y="12" width="3" height="9"/>
<rect x="615" y="12" width="3" height="9"/>
<rect x="624" y="12" width="3" height="9"/>
<rect x="12" y="21" width="24" height="9"/>
<rect x="39" y="21" width="3" height="9"/>
<rect x="45" y="21" width="3" height="9"/>
<rect x="51" y="21" width="3" height="9"/>
<rect x="63" y="21" width="12" height="9"/>
<rect x="78" y="21" width="3" height="9"/>
<rect x="84" y="21" width="3" height="9"/>
<rect x="102" y="21" width="3" height="9"/>
<rect x="114" y="21" width="12" height="9"/>
<rect x="129" y="21" width="3" height="9"/>
<rect x="144" y="21" width="3" height="9"/>
<rect x="150" y="21" width="3" height="9"/>
<rect x="165" y="21" width="9" height="9"/>
<rect x="180" y="21" width="3" height="9"/>
<rect x="192" y="21" width="6" height="9"/>
<rect x="210" y="21" width="3" height="9"/>
<rect x="216" y="21" width="18" height="9"/>
<rect x="237" y="21" width="6" height="9"/>
<rect x="246" y="21" width="3" height="9"/>
<rect x="255" y="21" width="6" height="9"/>
<rect x="267" y="21" width="9" height="9"/>
<rect x="282" y="21" width="3" height="9"/>
<rect x="300" y="21" width="6" height="9"/>
<rect x="312" y="21" width="3" height="9"/>
<rect x="318" y="21" width="3" height="9"/>
<rect x="327" y="21" width="3" height="9"/>
<rect x="333" y="21" width="12" height="9"/>
<rect x="348" y="21" width="3" height="9"/>
<rect x="369" y="21" width="6" height="9"/>
<rect x="378" y="21" width="3" height="9"/>
<rect x="384" y="21" width="12" height="9"/>
<rect x="408" y="21" width="6" height="9"/>
<rect x="420" y="21" width="9" height="9"/>
<rect x="432" y="21" width="3" height="9"/>
<rect x="444" y="21" width="6" height="9"/>
<rect x="462" y="21" width="3" height="9"/>
<rect x="471" y="21" width="9" height="9"/>
<rect x="483" y="21" width="3" height="9"/>
<rect x="498" y="21" width="6" height="9"/>
<rect x="510" y="21" width="3" height="9"/>
<rect x="522" y="21" width="18" height="9"/>
<rect x="543" y="21" width="3" height="9"/>
<rect x="549" y="21" width="3" height="9"/>
<rect x="555" y="21" width="9" height="9"/>
<rect x="573" y="21" width="21" height="9"/>
<rect x="597" y="21" width="3" height="9"/>
<rect x="609" y="21" width="3" height="9"/>
<rect x="615" y="21" width="3" height="9"/>
<rect x="624" y="21" width="3" height="9"/>
<rect x="12" y="30" width="24" height="9"/>
<rect x="39" y="30" width="3" height="9"/>
<rect x="45" y="30" width="3" height="9"/>
<rect x="51" y="30" width="3" height="9"/>
<rect x="63" y="30" width="9" height="9"/>
<rect x="75" y="30" width="3" height="9"/>
<rect x="81" y="30" width="3" height="9"/>
<rect x="93" y="30" width="18" height="9"/>
<rect x="114" y="30" width="3" height="9"/>
<rect x="120" y="30" width="9" height="9"/>
<rect x="147" y="30" width="3" height="9"/>
<rect x="153" y="30" width="6" height="9"/>
<rect x="165" y="30" width="6" height="9"/>
<rect x="180" y="30" width="15" height="9"/>
<rect x="201" y="30" width="3" height="9"/>
<rect x="210" y="30" width="3" height="9"/>
<rect x="216" y="30" width="6" height="9"/>
<rect x="231" y="30" width="15" height="9"/>
<rect x="252" y="30" width="3" height="9"/>
<rect x="261" y="30" width="3" height="9"/>
<rect x="267" y="30" width="6" height="9"/>
<rect x="282" y="30" width="15" height="9"/>
<rect x="303" y="30" width="3" height="9"/>
<rect x="312" y="30" width="3" height="9"/>
<rect x="318" y="30" width="6" height="9"/>
<rect x="333" y="30" width="15" height="9"/>
<rect x="354" y="30" width="3" height="9"/>
<rect x="363" y="30" width="3" height="9"/>
<rect x="369" y="30" width="6" height="9"/>
<rect x="384" y="30" width="15" height="9"/>
<rect x="405" y="30" width="3" height="9"/>
<rect x="414" y="30" width="3" height="9"/>
<rect x="420" y="30" width="6" height="9"/>
<rect x="435" y="30" width="15" height="9"/>
<rect x="456" y="30" width="3" height="9"/>
<rect x="465" y="30" width="3" height="9"/>
<rect x="471" y="30" width="6" height="9"/>
<rect x="486" y="30" width="15" height="9"/>
<rect x="507" y="30" width="3" height="9"/>
<rect x="516" y="30" width="3" height="9"/>
<rect x="522" y="30" width="3" height="9"/>
<rect x="528" y="30" width="3" height="9"/>
<rect x="534" y="30" width="3" height="9"/>
<rect x="552" y="30" width="12" height="9"/>
<rect x="573" y="30" width="21" height="9"/>
<rect x="597" y="30" width="3" height="9"/>
<rect x="609" y="30" width="3" height="9"/>
<rect x="615" y="30" width="3" height="9"/>
<rect x="624" y="30" width="3" height="9"/>
<rect x="12" y="39" width="24" height="9"/>
<rect x="39" y="39" width="3" height="9"/>
<rect x="45" y="39" width="3" height="9"/>
<rect x="51" y="39" width="3" height="9"/>
<rect x="63" y="39" width="3" height="9"/>
<rect x="69" y="39" width="3" height="9"/>
<rect x="75" y="39" width="12" height="9"/>
<rect x="93" y="39" width="12" height="9"/>
<rect x="114" y="39" width="6" height="9"/>
<rect x="123" y="39" width="3" height="9"/>
<rect x="138" y="39" width="3" height="9"/>
<rect x="156" y="39" width="6" height="9"/>
<rect x="165" y="39" width="6" height="9"/>
<rect x="177" y="39" width="6" height="9"/>
<rect x="195" y="39" width="6" height="9"/>
<rect x="207" y="39" width="6" height="9"/>
<rect x="216" y="39" width="6" height="9"/>
<rect x="225" y="39" width="3" height="9"/>
<rect x="240" y="39" width="3" height="9"/>
<rect x="249" y="39" width="6" height="9"/>
<rect x="267" y="39" width="6" height="9"/>
<rect x="276" y="39" width="6" height="9"/>
<rect x="288" y="39" width="3" height="9"/>
<rect x="303" y="39" width="3" height="9"/>
<rect x="318" y="39" width="9" height="9"/>
<rect x="330" y="39" width="9" height="9"/>
<rect x="345" y="39" width="3" height="9"/>
<rect x="363" y="39" width="3" height="9"/>
<rect x="369" y="39" width="6" height="9"/>
<rect x="387" y="39" width="3" height="9"/>
<rect x="396" y="39" width="6" height="9"/>
<rect x="405" y="39" width="9" height="9"/>
<rect x="420" y="39" width="3" height="9"/>
<rect x="426" y="39" width="6" height="9"/>
<rect x="438" y="39" width="12" height="9"/>
<rect x="453" y="39" width="9" height="9"/>
<rect x="471" y="39" width="3" height="9"/>
<rect x="477" y="39" width="3" height="9"/>
<rect x="492" y="39" width="6" height="9"/>
<rect x="501" y="39" width="6" height="9"/>
<rect x="522" y="39" width="15" height="9"/>
<rect x="540" y="39" width="3" height="9"/>
<rect x="549" y="39" width="3" height="9"/>
<rect x="555" y="39" width="15" height="9"/>
<rect x="573" y="39" width="21" height="9"/>
<rect x="597" y="39" width="3" height="9"/>
<rect x="609" y="39" width="3" height="9"/>
<rect x="615" y="39" width="3" height="9"/>
<rect x="624" y="39" width="3" height="9"/>
<rect x="12" y="48" width="24" height="9"/>
<rect x="39" y="48" width="3" height="9"/>
<rect x="45" y="48" width="3" height="9"/>
<rect x="51" y="48" width="3" height="9"/>
<rect x="63" y="48" width="6" height="9"/>
<rect x="72" y="48" width="3" height="9"/>
<rect x="78" y="48" width="9" height="9"/>
<rect x="105" y="48" width="3" height="9"/>
<rect x="114" y="48" width="9" height="9"/>
<rect x="126" y="48" width="9" height="9"/>
<rect x="141" y="48" width="12" height="9"/>
<rect x="159" y="48" width="3" height="9"/>
<rect x="165" y="48" width="3" height="9"/>
<rect x="171" y="48" width="15" height="9"/>
<rect x="195" y="48" width="3" height="9"/>
<rect x="204" y="48" width="9" height="9"/>
<rect x="216" y="48" width="3" height="9"/>
<rect x="222" y="48" width="12" height="9"/>
<rect x="240" y="48" width="3" height="9"/>
<rect x="249" y="48" width="12" height="9"/>
<rect x="267" y="48" width="9" height="9"/>
<rect x="279" y="48" width="3" height="9"/>
<rect x="288" y="48" width="6" height="9"/>
<rect x="303" y="48" width="3" height="9"/>
<rect x="318" y="48" width="3" height="9"/>
<rect x="327" y="48" width="6" height="9"/>
<rect x="339" y="48" width="15" height="9"/>
<rect x="357" y="48" width="3" height="9"/>
<rect x="369" y="48" width="12" height="9"/>
<rect x="384" y="48" width="3" height="9"/>
<rect x="390" y="48" width="3" height="9"/>
<rect x="408" y="48" width="3" height="9"/>
<rect x="420" y="48" width="12" height="9"/>
<rect x="447" y="48" width="3" height="9"/>
<rect x="453" y="48" width="3" height="9"/>
<rect x="465" y="48" width="3" height="9"/>
<rect x="471" y="48" width="3" height="9"/>
<rect x="483" y="48" width="3" height="9"/>
<rect x="489" y="48" width="18" height="9"/>
<rect x="510" y="48" width="9" height="9"/>
<rect x="522" y="48" width="9" height="9"/>
<rect x="534" y="48" width="3" height="9"/>
<rect x="540" y="48" width="9" height="9"/>
<rect x="555" y="48" width="6" height="9"/>
<rect x="573" y="48" width="21" height="9"/>
<rect x="597" y="48" width="3" height="9"/>
<rect x="609" y="48" width="3" height="9"/>
<rect x="615" y="48" width="3" height="9"/>
<rect x="624" y="48" width="3" height="9"/>
</g>
</svg>

