<?xml version="1.0" encoding="UTF-8"?>
<svg xmlns="http://www.w3.org/2000/svg" width="537" height="141" viewBox="0 0 537 141" shape-rendering="crispEdges">
<rect width="100%" height="100%" fill="#ffffff"/>
<g fill="#000000">
<rect x="12" y="12" width="24" height="9"/>
<rect x="39" y="12" width="3" height="9"/>
<rect x="45" y="12" width="3" height="9"/>
<rect x="51" y="12" width="3" height="9"/>
<rect x="63" y="12" width="12" height="9"/>
<rect x="78" y="12" width="3" height="9"/>
<rect x="84" y="12" width="3" height="9"/>
<rect x="93" y="12" width="12" height="9"/>
<rect x="114" y="12" width="12" height="9"/>
<rect x="129" y="12" width="3" height="9"/>
<rect x="135" y="12" width="6" height="9"/>
<rect x="144" y="12" width="15" height="9"/>
<rect x="165" y="12" width="3" height="9"/>
<rect x="174" y="12" width="12" height="9"/>
<rect x="189" y="12" width="12" height="9"/>
<rect x="204" y="12" width="3" height="9"/>
<rect x="216" y="12" width="12" height="9"/>
<rect x="231" y="12" width="3" height="9"/>
<rect x="237" y="12" width="3" height="9"/>
<rect x="243" y="12" width="12" height="9"/>
<rect x="267" y="12" width="6" height="9"/>
<rect x="279" y="12" width="3" height="9"/>
<rect x="288" y="12" width="9" height="9"/>
<rect x="303" y="12" width="12" height="9"/>
<rect x="318" y="12" width="6" height="9"/>
<rect x="330" y="12" width="9" height="9"/>
<rect x="345" y="12" width="9" height="9"/>
<rect x="360" y="12" width="6" height="9"/>
<rect x="369" y="12" width="6" height="9"/>
<rect x="384" y="12" width="9" height="9"/>
<rect x="402" y="12" width="6" height="9"/>
<rect x="411" y="12" width="3" height="9"/>
<rect x="420" y="12" width="15" height="9"/>
<rect x="438" y="12" width="3" height="9"/>
<rect x="444" y="12" width="3" height="9"/>
<rect x="453" y="12" width="15" height="9"/>
<rect x="471" y="12" width="21" height="9"/>
<rect x="495" y="12" width="3" height="9"/>
<rect x="507" y="12" width="3" height="9"/>
<rect x="513" y="12" width="3" height="9"/>
<rect x="522" y="12" width="3" height="9"/>
<rect x="12" y="21" width="24" height="9"/>
<rect x="39" y="21" width="3" height="9"/>
<rect x="45" y="21" width="3" height="9"/>
<rect x="51" y="21" width="3" height="9"/>
<rect x="63" y="21" width="18" height="9"/>
<rect x="84" y="21" width="3" height="9"/>
<rect x="90" y="21" width="6" height="9"/>
<rect x="99" y="21" width="12" height="9"/>
<rect x="114" y="21" width="6" height="9"/>
<rect x="126" y="21" width="3" height="9"/>
<rect x="135" y="21" width="12" height="9"/>
<rect x="153" y="21" width="6" height="9"/>
<rect x="165" y="21" width="9" height="9"/>
<rect x="177" y="21" width="3" height="9"/>
<rect x="183" y="21" width="6" height="9"/>
<rect x="204" y="21" width="3" height="9"/>
<rect x="216" y="21" width="9" height="9"/>
<rect x="237" y="21" width="3" height="9"/>
<rect x="252" y="21" width="6" height="9"/>
<rect x="261" y="21" width="3" height="9"/>
<rect x="267" y="21" width="6" height="9"/>
<rect x="279" y="21" width="3" height="9"/>
<rect x="285" y="21" width="9" height="9"/>
<rect x="312" y="21" width="3" height="9"/>
<rect x="318" y="21" width="6" height="9"/>
<rect x="330" y="21" width="3" height="9"/>
<rect x="345" y="21" width="9" height="9"/>
<rect x="363" y="21" width="3" height="9"/>
<rect x="369" y="21" width="3" height="9"/>
<rect x="375" y="21" width="18" height="9"/>
<rect x="396" y="21" width="3" height="9"/>
<rect x="402" y="21" width="6" height="9"/>
<rect x="420" y="21" width="18" height="9"/>
<rect x="441" y="21" width="3" height="9"/>
<rect x="447" y="21" width="3" height="9"/>
<rect x="456" y="21" width="9" height="9"/>
<rect x="471" y="21" width="21" height="9"/>
<rect x="495" y="21" width="3" height="9"/>
<rect x="507" y="21" width="3" height="9"/>
<rect x="513" y="21" width="3" height="9"/>
<rect x="522" y="21" width="3" height="9"/>
<rect x="12" y="30" width="24" height="9"/>
<rect x="39" y="30" width="3" height="9"/>
<rect x="45" y="30" width="3" height="9"/>
<rect x="51" y="30" width="3" height="9"/>
<rect x="63" y="30" width="3" height="9"/>
<rect x="69" y="30" width="3" height="9"/>
<rect x="75" y="30" width="3" height="9"/>
<rect x="87" y="30" width="12" height="9"/>
<rect x="114" y="30" width="6" height="9"/>
<rect x="129" y="30" width="15" height="9"/>
<rect x="150" y="30" width="3" height="9"/>
<rect x="159" y="30" width="3" height="9"/>
<rect x="165" y="30" width="6" height="9"/>
<rect x="180" y="30" width="15" height="9"/>
<rect x="201" y="30" width="3" height="9"/>
<rect x="210" y="30" width="3" height="9"/>
<rect x="216" y="30" width="3" height="9"/>
<rect x="222" y="30" width="9" height="9"/>
<rect x="234" y="30" width="3" height="9"/>
<rect x="249" y="30" width="6" height="9"/>
<rect x="267" y="30" width="3" height="9"/>
<rect x="276" y="30" width="6" height="9"/>
<rect x="285" y="30" width="3" height="9"/>
<rect x="300" y="30" width="9" height="9"/>
<rect x="318" y="30" width="18" height="9"/>
<rect x="339" y="30" width="3" height="9"/>
<rect x="345" y="30" width="6" height="9"/>
<rect x="357" y="30" width="3" height="9"/>
<rect x="369" y="30" width="12" height="9"/>
<rect x="384" y="30" width="6" height="9"/>
<rect x="393" y="30" width="15" height="9"/>
<rect x="411" y="30" width="3" height="9"/>
<rect x="420" y="30" width="3" height="9"/>
<rect x="426" y="30" width="3" height="9"/>
<rect x="432" y="30" width="6" height="9"/>
<rect x="444" y="30" width="15" height="9"/>
<rect x="471" y="30" width="21" height="9"/>
<rect x="495" y="30" width="3" height="9"/>
<rect x="507" y="30" width="3" height="9"/>
<rect x="513" y="30" width="3" height="9"/>
<rect x="522" y="30" width="3" height="9"/>
<rect x="12" y="39" width="24" height="9"/>
<rect x="39" y="39" width="3" height="9"/>
<rect x="45" y="39" width="3" height="9"/>
<rect x="51" y="39" width="3" height="9"/>
<rect x="63" y="39" width="15" height="9"/>
<rect x="81" y="39" width="3" height="9"/>
<rect x="87" y="39" width="18" height="9"/>
<rect x="108" y="39" width="3" height="9"/>
<rect x="114" y="39" width="12" height="9"/>
<rect x="129" y="39" width="6" height="9"/>
<rect x="141" y="39" width="3" height="9"/>
<rect x="147" y="39" width="9" height="9"/>
<rect x="165" y="39" width="3" height="9"/>
<rect x="171" y="39" width="3" height="9"/>
<rect x="180" y="39" width="12" height="9"/>
<rect x="198" y="39" width="12" height="9"/>
<rect x="216" y="39" width="3" height="9"/>
<rect x="231" y="39" width="3" height="9"/>
<rect x="246" y="39" width="6" height="9"/>
<rect x="258" y="39" width="6" height="9"/>
<rect x="267" y="39" width="6" height="9"/>
<rect x="282" y="39" width="9" height="9"/>
<rect x="297" y="39" width="6" height="9"/>
<rect x="312" y="39" width="3" height="9"/>
<rect x="318" y="39" width="6" height="9"/>
<rect x="330" y="39" width="3" height="9"/>
<rect x="342" y="39" width="6" height="9"/>
<rect x="357" y="39" width="9" height="9"/>
<rect x="369" y="39" width="9" height="9"/>
<rect x="381" y="39" width="6" height="9"/>
<rect x="390" y="39" width="3" height="9"/>
<rect x="396" y="39" width="6" height="9"/>
<rect x="420" y="39" width="9" height="9"/>
<rect x="432" y="39" width="3" height="9"/>
<rect x="441" y="39" width="3" height="9"/>
<rect x="447" y="39" width="9" height="9"/>
<rect x="471" y="39" width="21" height="9"/>
<rect x="495" y="39" width="3" height="9"/>
<rect x="507" y="39" width="3" height="9"/>
<rect x="513" y="39" width="3" height="9"/>
<rect x="522" y="39" width="3" height="9"/>
<rect x="12" y="48" width="24" height="9"/>
<rect x="39" y="48" width="3" height="9"/>
<rect x="45" y="48" width="3" height="9"/>
<rect x="51" y="48" width="3" height="9"/>
<rect x="63" y="48" width="6" height="9"/>
<rect x="72" y="48" width="3" height="9"/>
<rect x="78" y="48" width="12" height="9"/>
<rect x="96" y="48" width="6" height="9"/>
<rect x="114" y="48" width="6" height="9"/>
<rect x="129" y="48" width="3" height="9"/>
<rect x="138" y="48" width="9" height="9"/>
<rect x="150" y="48" width="3" height="9"/>
<rect x="165" y="48" width="3" height="9"/>
<rect x="171" y="48" width="3" height="9"/>
<rect x="177" y="48" width="15" height="9"/>
<rect x="195" y="48" width="6" height="9"/>
<rect x="216" y="48" width="3" height="9"/>
<rect x="222" y="48" width="9" height="9"/>
<rect x="237" y="48" width="18" height="9"/>
<rect x="261" y="48" width="3" height="9"/>
<rect x="267" y="48" width="15" height="9"/>
<rect x="285" y="48" width="3" height="9"/>
<rect x="300" y="48" width="3" height="9"/>
<rect x="306" y="48" width="6" height="9"/>
<rect x="318" y="48" width="9" height="9"/>
<rect x="333" y="48" width="6" height="9"/>
<rect x="342" y="48" width="9" height="9"/>
<rect x="360" y="48" width="3" height="9"/>
<rect x="369" y="48" width="6" height="9"/>
<rect x="378" y="48" width="3" height="9"/>
<rect x="393" y="48" width="9" height="9"/>
<rect x="411" y="48" width="3" height="9"/>
<rect x="420" y="48" width="9" height="9"/>
<rect x="432" y="48" width="3" height="9"/>
<rect x="438" y="48" width="9" height="9"/>
<rect x="456" y="48" width="6" height="9"/>
<rect x="471" y="48" width="21" height="9"/>
<rect x="495" y="48" width="3" height="9"/>
<rect x="507" y="48" width="3" height="9"/>
<rect x="513" y="48" width="3" height="9"/>
<rect x="522" y="48" width="3" height="9"/>
<rect x="12" y="57" width="24" height="9"/>
<rect x="39" y="57" width="3" height="9"/>
<rect x="45" y="57" width="3" height="9"/>
<rect x="51" y="57" width="3" height="9"/>
<rect x="63" y="57" width="12" height="9"/>
<rect x="78" y="57" width="3" height="9"/>
<rect x="84" y="57" width="12" height="9"/>
<rect x="105" y="57" width="3" height="9"/>
<rect x="114" y="57" width="3" height="9"/>
<rect x="120" y="57" width="9" height="9"/>
<rect x="135" y="57" width="3" height="9"/>
<rect x="147" y="57" width="6" height="9"/>
<rect x="165" y="57" width="9" height="9"/>
<rect x="180" y="57" width="12" height="9"/>
<rect x="195" y="57" width="3" height="9"/>
<rect x="204" y="57" width="9" height="9"/>
<rect x="216" y="57" width="3" height="9"/>
<rect x="222" y="57" width="3" height="9"/>
<rect x="237" y="57" width="6" height="9"/>
<rect x="249" y="57" width="15" height="9"/>
<rect x="267" y="57" width="9" height="9"/>
<rect x="279" y="57" width="6" height="9"/>
<rect x="291" y="57" width="3" height="9"/>
<rect x="300" y="57" width="15" height="9"/>
<rect x="318" y="57" width="3" height="9"/>
<rect x="324" y="57" width="9" height="9"/>
<rect x="336" y="57" width="3" height="9"/>
<rect x="348" y="57" width="6" height="9"/>
<rect x="369" y="57" width="6" height="9"/>
<rect x="381" y="57" width="6" height="9"/>
<rect x="396" y="57" width="3" height="9"/>
<rect x="402" y="57" width="12" height="9"/>
<rect x="420" y="57" width="6" height="9"/>
<rect x="429" y="57" width="3" height="9"/>
<rect x="435" y="57" width="18" height="9"/>
<rect x="459" y="57" width="3" height="9"/>
<rect x="471" y="57" width="21" height="9"/>
<rect x="495" y="57" width="3" height="9"/>
<rect x="507" y="57" width="3" height="9"/>
<rect x="513" y="57" width="3" height="9"/>
<rect x="522" y="57" width="3" height="9"/>
<rect x="12" y="66" width="24" height="9"/>
<rect x="39" y="66" width="3" height="9"/>
<rect x="45" y="66" width="3" height="9"/>
<rect x="51" y="66" width="3" height="9"/>
<rect x="63" y="66" width="6" height="9"/>
<rect x="72" y="66" width="3" height="9"/>
<rect x="81" y="66" width="9" height="9"/>
<rect x="96" y="66" width="12" height="9"/>
<rect x="114" y="66" width="9" height="9"/>
<rect x="129" y="66" width="12" height="9"/>
<rect x="144" y="66" width="6" height="9"/>
<rect x="159" y="66" width="3" height="9"/>
<rect x="165" y="66" width="3" height="9"/>
<rect x="171" y="66" width="6" height="9"/>
<rect x="180" y="66" width="6" height="9"/>
<rect x="201" y="66" width="3" height="9"/>
<rect x="216" y="66" width="6" height="9"/>
<rect x="231" y="66" width="3" height="9"/>
<rect x="243" y="66" width="3" height="9"/>
<rect x="252" y="66" width="6" height="9"/>
<rect x="267" y="66" width="3" height="9"/>
<rect x="276" y="66" width="6" height="9"/>
<rect x="285" y="66" width="9" height="9"/>
<rect x="297" y="66" width="6" height="9"/>
<rect x="318" y="66" width="12" height="9"/>
<rect x="336" y="66" width="9" height="9"/>
<rect x="348" y="66" width="3" height="9"/>
<rect x="357" y="66" width="6" height="9"/>
<rect x="369" y="66" width="6" height="9"/>
<rect x="378" y="66" width="6" height="9"/>
<rect x="393" y="66" width="3" height="9"/>
<rect x="399" y="66" width="3" height="9"/>
<rect x="420" y="66" width="3" height="9"/>
<rect x="426" y="66" width="3" height="9"/>
<rect x="435" y="66" width="9" height="9"/>
<rect x="453" y="66" width="9" height="9"/>
<rect x="471" y="66" width="21" height="9"/>
<rect x="495" y="66" width="3" height="9"/>
<rect x="507" y="66" width="3" height="9"/>
<rect x="513" y="66" width="3" height="9"/>
<rect x="522" y="66" width="3" height="9"/>
<rect x="12" y="75" width="24" height="9"/>
<rect x="39" y="75" width="3" height="9"/>
<rect x="45" y="75" width="3" height="9"/>
<rect x="51" y="75" width="3" height="9"/>
<rect x="63" y="75" width="15" height="9"/>
<rect x="81" y="75" width="3" height="9"/>
<rect x="90" y="75" width="3" height="9"/>
<rect x="105" y="75" width="6" height="9"/>
<rect x="114" y="75" width="3" height="9"/>
<rect x="123" y="75" width="9" height="9"/>
<rect x="135" y="75" width="18" height="9"/>
<rect x="159" y="75" width="3" height="9"/>
<rect x="165" y="75" width="3" height="9"/>
<rect x="171" y="75" width="3" height="9"/>
<rect x="189" y="75" width="12" height="9"/>
<rect x="204" y="75" width="3" height="9"/>
<rect x="216" y="75" width="6" height="9"/>
<rect x="225" y="75" width="3" height="9"/>
<rect x="231" y="75" width="9" height="9"/>
<rect x="249" y="75" width="3" height="9"/>
<rect x="267" y="75" width="3" height="9"/>
<rect x="276" y="75" width="3" height="9"/>
<rect x="282" y="75" width="12" height="9"/>
<rect x="303" y="75" width="3" height="9"/>
<rect x="318" y="75" width="9" height="9"/>
<rect x="330" y="75" width="3" height="9"/>
<rect x="339" y="75" width="9" height="9"/>
<rect x="360" y="75" width="6" height="9"/>
<rect x="369" y="75" width="12" height="9"/>
<rect x="390" y="75" width="3" height="9"/>
<rect x="396" y="75" width="6" height="9"/>
<rect x="405" y="75" width="6" height="9"/>
<rect x="420" y="75" width="3" height="9"/>
<rect x="426" y="75" width="3" height="9"/>
<rect x="432" y="75" width="18" height="9"/>
<rect x="456" y="75" width="9" height="9"/>
<rect x="471" y="75" width="21" height="9"/>
<rect x="495" y="75" width="3" height="9"/>
<rect x="507" y="75" width="3" height="9"/>
<rect x="513" y="75" width="3" height="9"/>
<rect x="522" y="75" width="3" height="9"/>
<rect x="12" y="84" width="24" height="9"/>
<rect x="39" y="84" width="3" height="9"/>
<rect x="45" y="84" width="3" height="9"/>
<rect x="51" y="84" width="3" height="9"/>
<rect x="63" y="84" width="18" height="9"/>
<rect x="84" y="84" width="3" height="9"/>
<rect x="93" y="84" width="6" height="9"/>
<rect x="108" y="84" width="3" height="9"/>
<rect x="114" y="84" width="3" height="9"/>
<rect x="132" y="84" width="12" height="9"/>
<rect x="150" y="84" width="3" height="9"/>
<rect x="156" y="84" width="3" height="9"/>
<rect x="165" y="84" width="6" height="9"/>
<rect x="180" y="84" width="6" height="9"/>
<rect x="189" y="84" width="3" height="9"/>
<rect x="195" y="84" width="12" height="9"/>
<rect x="216" y="84" width="3" height="9"/>
<rect x="231" y="84" width="12" height="9"/>
<rect x="246" y="84" width="3" height="9"/>
<rect x="261" y="84" width="3" height="9"/>
<rect x="267" y="84" width="6" height="9"/>
<rect x="279" y="84" width="12" height="9"/>
<rect x="300" y="84" width="3" height="9"/>
<rect x="309" y="84" width="6" height="9"/>
<rect x="318" y="84" width="3" height="9"/>
<rect x="324" y="84" width="12" height="9"/>
<rect x="345" y="84" width="3" height="9"/>
<rect x="354" y="84" width="3" height="9"/>
<rect x="369" y="84" width="3" height="9"/>
<rect x="378" y="84" width="12" height="9"/>
<rect x="393" y="84" width="3" height="9"/>
<rect x="411" y="84" width="3" height="9"/>
<rect x="420" y="84" width="15" height="9"/>
<rect x="438" y="84" width="3" height="9"/>
<rect x="447" y="84" width="12" height="9"/>
<rect x="462" y="84" width="6" height="9"/>
<rect x="471" y="84" width="21" height="9"/>
<rect x="495" y="84" width="3" height="9"/>
<rect x="507" y="84" width="3" height="9"/>
<rect x="513" y="84" width="3" height="9"/>
<rect x="522" y="84" width="3" height="9"/>
<rect x="12" y="93" width="24" height="9"/>
<rect x="39" y="93" width="3" height="9"/>
<rect x="45" y="93" width="3" height="9"/>
<rect x="51" y="93" width="3" height="9"/>
<rect x="63" y="93" width="3" height="9"/>
<rect x="69" y="93" width="3" height="9"/>
<rect x="81" y="93" width="9" height="9"/>
<rect x="93" y="93" width="9" height="9"/>
<rect x="114" y="93" width="3" height="9"/>
<rect x="132" y="93" width="3" height="9"/>
<rect x="144" y="93" width="6" height="9"/>
<rect x="153" y="93" width="6" height="9"/>
<rect x="165" y="93" width="3" height="9"/>
<rect x="177" y="93" width="3" height="9"/>
<rect x="192" y="93" width="3" height="9"/>
<rect x="207" y="93" width="3" height="9"/>
<rect x="216" y="93" width="9" height="9"/>
<rect x="234" y="93" width="6" height="9"/>
<rect x="249" y="93" width="3" height="9"/>
<rect x="258" y="93" width="6" height="9"/>
<rect x="267" y="93" width="6" height="9"/>
<rect x="276" y="93" width="3" height="9"/>
<rect x="285" y="93" width="3" height="9"/>
<rect x="297" y="93" width="6" height="9"/>
<rect x="318" y="93" width="6" height="9"/>
<rect x="330" y="93" width="6" height="9"/>
<rect x="348" y="93" width="6" height="9"/>
<rect x="360" y="93" width="6" height="9"/>
<rect x="369" y="93" width="9" height="9"/>
<rect x="381" y="93" width="9" height="9"/>
<rect x="393" y="93" width="9" height="9"/>
<rect x="408" y="93" width="9" height="9"/>
<rect x="420" y="93" width="6" height="9"/>
<rect x="429" y="93" width="3" height="9"/>
<rect x="441" y="93" width="9" height="9"/>
<rect x="453" y="93" width="12" height="9"/>
<rect x="471" y="93" width="21" height="9"/>
<rect x="495" y="93" width="3" height="9"/>
<rect x="507" y="93" width="3" height="9"/>
<rect x="513" y="93" width="3" height="9"/>
<rect x="522" y="93" width="3" height="9"/>
<rect x="12" y="102" width="24" height="9"/>
<rect x="39" y="102" width="3" height="9"/>
<rect x="45" y="102" width="3" height="9"/>
<rect x="51" y="102" width="3" height="9"/>
<rect x="63" y="102" width="3" height="9"/>
<rect x="69" y="102" width="3" height="9"/>
<rect x="78" y="102" width="12" height="9"/>
<rect x="96" y="102" width="3" height="9"/>
<rect x="114" y="102" width="3" height="9"/>
<rect x="129" y="102" width="3" height="9"/>
<rect x="135" y="102" width="12" height="9"/>
<rect x="153" y="102" width="3" height="9"/>
<rect x="165" y="102" width="12" height="9"/>
<rect x="192" y="102" width="6" height="9"/>
<rect x="201" y="102" width="6" height="9"/>
<rect x="210" y="102" width="3" height="9"/>
<rect x="216" y="102" width="3" height="9"/>
<rect x="222" y="102" width="6" height="9"/>
<rect x="240" y="102" width="15" height="9"/>
<rect x="261" y="102" width="3" height="9"/>
<rect x="267" y="102" width="9" height="9"/>
<rect x="282" y="102" width="3" height="9"/>
<rect x="288" y="102" width="12" height="9"/>
<rect x="306" y="102" width="9" height="9"/>
<rect x="318" y="102" width="12" height="9"/>
<rect x="339" y="102" width="6" height="9"/>
<rect x="351" y="102" width="6" height="9"/>
<rect x="363" y="102" width="3" height="9"/>
<rect x="369" y="102" width="12" height="9"/>
<rect x="387" y="102" width="6" height="9"/>
<rect x="396" y="102" width="9" height="9"/>
<rect x="411" y="102" width="6" height="9"/>
<rect x="420" y="102" width="9" height="9"/>
<rect x="432" y="102" width="3" height="9"/>
<rect x="441" y="102" width="9" height="9"/>
<rect x="456" y="102" width="6" height="9"/>
<rect x="471" y="102" width="21" height="9"/>
<rect x="495" y="102" width="3" height="9"/>
<rect x="507" y="102" width="3" height="9"/>
<rect x="513" y="102" width="3" height="9"/>
<rect x="522" y="102" width="3" height="9"/>
<rect x="12" y="111" width="24" height="9"/>
<rect x="39" y="111" width="3" height="9"/>
<rect x="45" y="111" width="3" height="9"/>
<rect x="51" y="111" width="3" height="9"/>
<rect x="63" y="111" width="18" height="9"/>
<rect x="84" y="111" width="3" height="9"/>
<rect x="96" y="111" width="6" height="9"/>
<rect x="105" y="111" width="3" height="9"/>
<rect x="114" y="111" width="9" height="9"/>
<rect x="126" y="111" width="3" height="9"/>
<rect x="138" y="111" width="15" height="9"/>
<rect x="159" y="111" width="3" height="9"/>
<rect x="165" y="111" width="3" height="9"/>
<rect x="177" y="111" width="3" height="9"/>
<rect x="183" y="111" width="6" height="9"/>
<rect x="198" y="111" width="15" height="9"/>
<rect x="216" y="111" width="3" height="9"/>
<rect x="222" y="111" width="3" height="9"/>
<rect x="237" y="111" width="6" height="9"/>
<rect x="249" y="111" width="15" height="9"/>
<rect x="267" y="111" width="3" height="9"/>
<rect x="279" y="111" width="6" height="9"/>
<rect x="291" y="111" width="3" height="9"/>
<rect x="297" y="111" width="9" height="9"/>
<rect x="318" y="111" width="3" height="9"/>
<rect x="324" y="111" width="9" height="9"/>
<rect x="339" y="111" width="6" height="9"/>
<rect x="351" y="111" width="9" height="9"/>
<rect x="369" y="111" width="18" height="9"/>
<rect x="393" y="111" width="3" height="9"/>
<rect x="399" y="111" width="6" height="9"/>
<rect x="408" y="111" width="3" height="9"/>
<rect x="420" y="111" width="12" height="9"/>
<rect x="435" y="111" width="3" height="9"/>
<rect x="447" y="111" width="12" height="9"/>
<rect x="465" y="111" width="3" height="9"/>
<rect x="471" y="111" width="21" height="9"/>
<rect x="495" y="111" width="3" height="9"/>
<rect x="507" y="111" width="3" height="9"/>
<rect x="513" y="111" width="3" height="9"/>
<rect x="522" y="111" width="3" height="9"/>
<rect x="12" y="120" width="24" height="9"/>
<rect x="39" y="120" width="3" height="9"/>
<rect x="45" y="120" width="3" height="9"/>
<rect x="51" y="120" width="3" height="9"/>
<rect x="63" y="120" width="3" height="9"/>
<rect x="69" y="120" width="3" height="9"/>
<rect x="87" y="120" width="3" height="9"/>
<rect x="93" y="120" width="3" height="9"/>
<rect x="114" y="120" width="9" height="9"/>
<rect x="132" y="120" width="9" height="9"/>
<rect x="144" y="120" width="3" height="9"/>
<rect x="153" y="120" width="3" height="9"/>
<rect x="165" y="120" width="3" height="9"/>
<rect x="177" y="120" width="6" height="9"/>
<rect x="192" y="120" width="9" height="9"/>
<rect x="207" y="120" width="6" height="9"/>
<rect x="216" y="120" width="3" height="9"/>
<rect x="222" y="120" width="3" height="9"/>
<rect x="231" y="120" width="3" height="9"/>
<rect x="246" y="120" width="3" height="9"/>
<rect x="267" y="120" width="3" height="9"/>
<rect x="285" y="120" width="3" height="9"/>
<rect x="300" y="120" width="3" height="9"/>
<rect x="306" y="120" width="3" height="9"/>
<rect x="318" y="120" width="3" height="9"/>
<rect x="333" y="120" width="3" height="9"/>
<rect x="345" y="120" width="6" height="9"/>
<rect x="360" y="120" width="6" height="9"/>
<rect x="369" y="120" width="3" height="9"/>
<rect x="384" y="120" width="6" height="9"/>
<rect x="393" y="120" width="6" height="9"/>
<rect x="408" y="120" width="3" height="9"/>
<rect x="420" y="120" width="6" height="9"/>
<rect x="429" y="120" width="3" height="9"/>
<rect x="447" y="120" width="3" height="9"/>
<rect x="453" y="120" width="6" height="9"/>
<rect x="471" y="120" width="21" height="9"/>
<rect x="495" y="120" width="3" height="9"/>
<rect x="507" y="120" width="3" height="9"/>
<rect x="513" y="120" width="3" height="9"/>
<rect x="522" y="120" width="3" height="9"/>
</g>
</svg>

